<svg preserveAspectRatio="none" width="100%" height="100%" overflow="visible" style="display: block;" viewBox="0 0 528 91" fill="none" xmlns="http://www.w3.org/2000/svg">
<g id="ThinkTwice Logo">
<path id="Vector" d="M21.1886 69.2772C15.2722 69.2772 11.9371 66.403 11.9371 58.1039V24.3672H25.9204L26.2435 21.8131H11.9371V9.57613L9.24809 9.89626V21.8165H0V24.3706H9.24809V58.4241C9.24809 65.2361 11.3986 71.8313 21.0809 71.8313C24.7357 71.8313 27.4281 70.661 28.717 69.9175L27.8589 67.6835C26.6743 68.3238 24.2007 69.2807 21.1921 69.2807L21.1886 69.2772ZM68.1899 21.4964C60.5538 21.4964 54.422 26.2845 51.733 31.0725V0L49.0441 0.320122V71.5147H51.733V35.0138C54.9605 28.842 60.8734 24.0539 67.8668 24.0539C76.2568 24.0539 80.3424 29.0554 80.3424 36.3976V71.5147H83.0313V36.0774C83.0313 28.4152 78.7304 21.4964 68.1899 21.4964ZM110.988 71.9966L113.676 71.6764V21.9817H110.988V72V71.9966ZM161.862 21.4964C154.119 21.4964 147.987 26.3912 145.298 31.1792V21.4964L142.717 21.8165V71.5147H145.406V35.0138C148.633 28.842 154.546 24.0539 161.539 24.0539C169.929 24.0539 174.015 29.0554 174.015 36.3976V71.5147H176.704V36.0774C176.704 28.4152 172.403 21.4964 161.862 21.4964ZM237.365 22.1366V21.8165L234.676 21.4964L207.356 49.5914V0L204.667 0.320122V71.5147H207.356V53.1025L217.035 43.0995L236.931 71.8313L239.728 71.5112V71.1911L218.862 41.1788L237.362 22.1298L237.365 22.1366ZM283.394 69.2772C277.478 69.2772 274.142 66.403 274.142 58.1039V24.3672H288.126L288.449 21.8131H274.142V9.57613L271.453 9.89626V21.8165H262.202V24.3706H271.453V58.4241C271.453 65.2361 273.604 71.8313 283.286 71.8313C286.941 71.8313 289.63 70.661 290.922 69.9175L290.064 67.6835C288.88 68.3238 286.406 69.2807 283.397 69.2807L283.394 69.2772ZM350.722 68.3203L337.062 21.8165H333.619L319.851 68.3203L305.868 21.4964L303.182 21.8165L318.562 71.5147H321.248L335.339 24.6907L349.43 71.5147H352.119L367.499 21.8165L364.81 21.4964L350.719 68.3203H350.722ZM388.469 71.5147H391.158V21.4964L388.469 21.8165V71.5147ZM435.466 69.2772C424.926 69.2772 418.04 60.3379 418.04 46.6105C418.04 32.8831 424.926 24.0505 435.466 24.0505C442.349 24.0505 447.08 27.0314 449.662 32.0329L451.92 30.6491C449.231 25.3275 443.637 21.4964 435.571 21.4964C423.522 21.4964 415.351 31.3927 415.351 46.6105C415.351 61.8284 423.526 71.8313 435.571 71.8313C443.422 71.8313 449.874 67.3634 453.209 60.0178L450.843 58.9542C448.046 65.4461 442.345 69.2772 435.463 69.2772H435.466ZM491.608 69.2772C481.714 69.2772 474.936 61.4015 474.182 49.0579L510 43.4162C509.138 30.0089 502.687 21.4929 491.716 21.4929C479.668 21.4929 471.496 31.3892 471.496 46.6071C471.496 61.8249 479.671 71.8279 491.716 71.8279C499.567 71.8279 506.022 67.36 509.357 60.0143L506.991 58.9507C504.195 65.4427 498.494 69.2738 491.612 69.2738L491.608 69.2772ZM491.608 24.0505C500.644 24.0505 505.807 30.6491 507.096 41.2889L474.182 46.6105C474.182 32.8831 481.064 24.0505 491.608 24.0505Z" fill="var(--fill-0, white)"/>
<path id="Vector_2" d="M112.5 89C111.134 89 110 87.864 110 86.5C110 85.136 111.134 84 112.5 84C113.866 84 115 85.136 115 86.5C115 87.864 113.862 89 112.5 89Z" fill="var(--fill-0, #26E1B0)"/>
<path id="Vector_3" d="M389.5 5C390.866 5 392 5.90882 392 7C392 8.09118 390.866 9 389.5 9C388.134 9 387 8.09118 387 7C387 5.90882 388.138 5 389.5 5Z" fill="var(--fill-0, #26E1B0)"/>
</g>
</svg>
